<mxfile host="app.diagrams.net" modified="2021-03-23T13:49:39.529Z" agent="5.0 (X11; Linux x86_64) AppleWebKit/537.36 (KHTML, like Gecko) Chrome/89.0.4389.90 Safari/537.36" etag="CYGLpCD1_gIaR_G0G16Y" version="14.4.7" type="github">
  <diagram id="Syu3dMtqfCV23zvC3uIO" name="Page-1">
    <mxGraphModel dx="1185" dy="610" grid="1" gridSize="10" guides="1" tooltips="1" connect="1" arrows="1" fold="1" page="1" pageScale="1" pageWidth="827" pageHeight="1169" math="0" shadow="0">
      <root>
        <mxCell id="0" />
        <mxCell id="1" parent="0" />
        <mxCell id="bwEfMOTlwZmXCJFG4P-m-1" value="" style="html=1;points=[];perimeter=orthogonalPerimeter;" vertex="1" parent="1">
          <mxGeometry x="140" y="90" width="330" height="870" as="geometry" />
        </mxCell>
        <mxCell id="bwEfMOTlwZmXCJFG4P-m-2" value="" style="html=1;points=[];perimeter=orthogonalPerimeter;" vertex="1" parent="1">
          <mxGeometry x="470" y="90" width="330" height="870" as="geometry" />
        </mxCell>
        <mxCell id="bwEfMOTlwZmXCJFG4P-m-3" value="" style="html=1;points=[];perimeter=orthogonalPerimeter;" vertex="1" parent="1">
          <mxGeometry x="800" y="90" width="330" height="870" as="geometry" />
        </mxCell>
        <mxCell id="bwEfMOTlwZmXCJFG4P-m-4" value="Мастер по приемке" style="rounded=0;whiteSpace=wrap;html=1;" vertex="1" parent="1">
          <mxGeometry x="140" y="90" width="330" height="50" as="geometry" />
        </mxCell>
        <mxCell id="bwEfMOTlwZmXCJFG4P-m-5" value="Автомеханик-диагност" style="rounded=0;whiteSpace=wrap;html=1;" vertex="1" parent="1">
          <mxGeometry x="470" y="90" width="330" height="50" as="geometry" />
        </mxCell>
        <mxCell id="bwEfMOTlwZmXCJFG4P-m-6" value="Программа-справочник" style="rounded=0;whiteSpace=wrap;html=1;" vertex="1" parent="1">
          <mxGeometry x="800" y="90" width="330" height="50" as="geometry" />
        </mxCell>
        <mxCell id="bwEfMOTlwZmXCJFG4P-m-7" value="" style="ellipse;html=1;shape=startState;fillColor=#000000;strokeColor=#ff0000;" vertex="1" parent="1">
          <mxGeometry x="290" y="150" width="30" height="30" as="geometry" />
        </mxCell>
        <mxCell id="bwEfMOTlwZmXCJFG4P-m-8" value="" style="edgeStyle=orthogonalEdgeStyle;html=1;verticalAlign=bottom;endArrow=open;endSize=8;strokeColor=#ff0000;entryX=0.5;entryY=0;entryDx=0;entryDy=0;" edge="1" source="bwEfMOTlwZmXCJFG4P-m-7" parent="1" target="bwEfMOTlwZmXCJFG4P-m-9">
          <mxGeometry relative="1" as="geometry">
            <mxPoint x="305" y="240" as="targetPoint" />
          </mxGeometry>
        </mxCell>
        <mxCell id="bwEfMOTlwZmXCJFG4P-m-9" value="Принять машину в автосервис" style="rounded=1;whiteSpace=wrap;html=1;arcSize=40;fontColor=#000000;fillColor=#ffffc0;strokeColor=#ff0000;" vertex="1" parent="1">
          <mxGeometry x="245" y="200" width="120" height="40" as="geometry" />
        </mxCell>
        <mxCell id="bwEfMOTlwZmXCJFG4P-m-10" value="" style="edgeStyle=orthogonalEdgeStyle;html=1;verticalAlign=bottom;endArrow=open;endSize=8;strokeColor=#ff0000;entryX=0.5;entryY=0;entryDx=0;entryDy=0;" edge="1" source="bwEfMOTlwZmXCJFG4P-m-9" parent="1" target="bwEfMOTlwZmXCJFG4P-m-19">
          <mxGeometry relative="1" as="geometry">
            <mxPoint x="305" y="350" as="targetPoint" />
            <Array as="points">
              <mxPoint x="305" y="260" />
              <mxPoint x="650" y="260" />
            </Array>
          </mxGeometry>
        </mxCell>
        <mxCell id="bwEfMOTlwZmXCJFG4P-m-12" value="" style="rhombus;whiteSpace=wrap;html=1;fillColor=#ffffc0;strokeColor=#ff0000;" vertex="1" parent="1">
          <mxGeometry x="610" y="350" width="80" height="40" as="geometry" />
        </mxCell>
        <mxCell id="bwEfMOTlwZmXCJFG4P-m-13" value="[машина не подлежит диагностике]" style="edgeStyle=orthogonalEdgeStyle;html=1;align=left;verticalAlign=bottom;endArrow=open;endSize=8;strokeColor=#ff0000;" edge="1" source="bwEfMOTlwZmXCJFG4P-m-12" parent="1">
          <mxGeometry x="-1" relative="1" as="geometry">
            <mxPoint x="770" y="370" as="targetPoint" />
          </mxGeometry>
        </mxCell>
        <mxCell id="bwEfMOTlwZmXCJFG4P-m-14" value="[машина подлежит диагностике]" style="edgeStyle=orthogonalEdgeStyle;html=1;align=left;verticalAlign=top;endArrow=open;endSize=8;strokeColor=#ff0000;entryX=0.5;entryY=0;entryDx=0;entryDy=0;" edge="1" source="bwEfMOTlwZmXCJFG4P-m-12" parent="1" target="bwEfMOTlwZmXCJFG4P-m-15">
          <mxGeometry x="0.091" relative="1" as="geometry">
            <mxPoint x="610" y="390" as="targetPoint" />
            <Array as="points">
              <mxPoint x="310" y="370" />
            </Array>
            <mxPoint as="offset" />
          </mxGeometry>
        </mxCell>
        <mxCell id="bwEfMOTlwZmXCJFG4P-m-15" value="Оформить документы" style="rounded=1;whiteSpace=wrap;html=1;arcSize=40;fontColor=#000000;fillColor=#ffffc0;strokeColor=#ff0000;" vertex="1" parent="1">
          <mxGeometry x="250" y="400" width="120" height="40" as="geometry" />
        </mxCell>
        <mxCell id="bwEfMOTlwZmXCJFG4P-m-16" value="" style="edgeStyle=orthogonalEdgeStyle;html=1;verticalAlign=bottom;endArrow=open;endSize=8;strokeColor=#ff0000;entryX=0.5;entryY=0;entryDx=0;entryDy=0;" edge="1" source="bwEfMOTlwZmXCJFG4P-m-15" parent="1" target="bwEfMOTlwZmXCJFG4P-m-17">
          <mxGeometry relative="1" as="geometry">
            <mxPoint x="310" y="470" as="targetPoint" />
          </mxGeometry>
        </mxCell>
        <mxCell id="bwEfMOTlwZmXCJFG4P-m-17" value="Составить тз" style="rounded=1;whiteSpace=wrap;html=1;arcSize=40;fontColor=#000000;fillColor=#ffffc0;strokeColor=#ff0000;" vertex="1" parent="1">
          <mxGeometry x="250" y="470" width="120" height="40" as="geometry" />
        </mxCell>
        <mxCell id="bwEfMOTlwZmXCJFG4P-m-18" value="" style="edgeStyle=orthogonalEdgeStyle;html=1;verticalAlign=bottom;endArrow=open;endSize=8;strokeColor=#ff0000;" edge="1" source="bwEfMOTlwZmXCJFG4P-m-17" parent="1">
          <mxGeometry relative="1" as="geometry">
            <mxPoint x="310" y="540" as="targetPoint" />
          </mxGeometry>
        </mxCell>
        <mxCell id="bwEfMOTlwZmXCJFG4P-m-19" value="Осмотр авто" style="rounded=1;whiteSpace=wrap;html=1;arcSize=40;fontColor=#000000;fillColor=#ffffc0;strokeColor=#ff0000;" vertex="1" parent="1">
          <mxGeometry x="590" y="290" width="120" height="40" as="geometry" />
        </mxCell>
        <mxCell id="bwEfMOTlwZmXCJFG4P-m-20" value="" style="edgeStyle=orthogonalEdgeStyle;html=1;verticalAlign=bottom;endArrow=open;endSize=8;strokeColor=#ff0000;entryX=0.5;entryY=0;entryDx=0;entryDy=0;" edge="1" source="bwEfMOTlwZmXCJFG4P-m-19" parent="1" target="bwEfMOTlwZmXCJFG4P-m-12">
          <mxGeometry relative="1" as="geometry">
            <mxPoint x="650" y="340" as="targetPoint" />
          </mxGeometry>
        </mxCell>
      </root>
    </mxGraphModel>
  </diagram>
</mxfile>
